{"title":"Underworld Awakening 2012 TS XviD Feel-Free","uid":7021657,"size":780211203,"categoryP":"video","categoryS":"movies","magnet":"?xt=urn:btih:8a044c0e7e9ab398cd3bb4b5b98f3082c72d465d&amp;dn=Underworld+Awakening+2012+TS+XviD+Feel-Free&amp;tr=udp%3A%2F%2Ftracker.openbittorrent.com%3A80&amp;tr=udp%3A%2F%2Fopen.demonii.com%3A1337&amp;tr=udp%3A%2F%2Ftracker.coppersurfer.tk%3A6969&amp;tr=udp%3A%2F%2Fexodus.desync.com%3A6969","seeders":0,"leechers":0,"uploader":"HeroMaster","files":-1,"time":1328867947,"description":"Underworld Awakening 2012 TS XviD Feel-Free\n\nGenre:Action | Fantasy | Horror\nLanguage:English\nIMDb:http://www.imdb.com/title/tt1496025/\nSource:SIC Thanks!\nEncoder:Tony\n\nFormat : AVI\nFormat/Info : Audio Video Interleave\nFile size : 743 MiB\nDuration : 1h 15mn\nOverall bit rate : 1 380 Kbps\n\nVideo\nID : 0\nFormat : MPEG-4 Visual\nFormat profile : Advanced Simple@L5\nFormat settings, BVOP : 2\nFormat settings, QPel : No\nFormat settings, GMC : No warppoints\nFormat settings, Matrix : Default (H.263)\nMuxing mode : Packed bitstream\nCodec ID : XVID\nCodec ID/Hint : XviD\nDuration : 1h 15mn\nBit rate : 1 243 Kbps\nWidth : 720 pixels\nHeight : 304 pixels\nDisplay aspect ratio : 2.35:1\nFrame rate : 25.000 fps\nColor space : YUV\nChroma subsampling : 4:2:0\nBit depth : 8 bits\nScan type : Progressive\nCompression mode : Lossy\nBits/(Pixel*Frame) : 0.227\nStream size : 669 MiB (90%)\nWriting library : XviD 64\n\nAudio\nID : 1\nFormat : MPEG Audio\nFormat version : Version 1\nFormat profile : Layer 3\nMode : Joint stereo\nMode extension : MS Stereo\nCodec ID : 55\nCodec ID/Hint : MP3\nDuration : 1h 15mn\nBit rate mode : Constant\nBit rate : 128 Kbps\nChannel(s) : 2 channels\nSampling rate : 44.1 KHz\nCompression mode : Lossy\nStream size : 68.9 MiB (9%)\nAlignment : Split accross interleaves\nInterleave, duration : 40 ms (1.00 video frame)\nInterleave, preload duration : 500 ms\nWriting library : LAME3.98r\nEncoding settings : -m j -V 4 -q 2 -lowpass 17 -b 128\n\n\nPlot:\nWhen human forces discover the existence of the Vampire and Lycan clans, a war \nto eradicate both species commences. The vampire warrioress Selene leads the \nbattle against humankind.\n\n\nPoster:\n\n &lt;a href=&quot;\nhttp://i.imgur.com/ZA9xe.jpg&quot; rel=&quot;nofollow&quot; target=&quot;_NEW&quot;&gt;\nhttp://i.imgur.com/ZA9xe.jpg&lt;/a&gt;\n\n\nScreens:\n\n &lt;a href=&quot;\nhttp://i.imgur.com/XoXFb.png&quot; rel=&quot;nofollow&quot; target=&quot;_NEW&quot;&gt;\nhttp://i.imgur.com/XoXFb.png&lt;/a&gt;\n\n &lt;a href=&quot;\nhttp://i.imgur.com/MJkea.png&quot; rel=&quot;nofollow&quot; target=&quot;_NEW&quot;&gt;\nhttp://i.imgur.com/MJkea.png&lt;/a&gt;\n\n &lt;a href=&quot;\nhttp://i.imgur.com/Ut1kb.png&quot; rel=&quot;nofollow&quot; target=&quot;_NEW&quot;&gt;\nhttp://i.imgur.com/Ut1kb.png&lt;/a&gt;\n\n\nENJOY!","torrent":{"xt":"urn:btih:8a044c0e7e9ab398cd3bb4b5b98f3082c72d465d","amp;dn":"Underworld+Awakening+2012+TS+XviD+Feel-Free","amp;tr":["udp%3A%2F%2Ftracker.openbittorrent.com%3A80","udp%3A%2F%2Fopen.demonii.com%3A1337","udp%3A%2F%2Ftracker.coppersurfer.tk%3A6969","udp%3A%2F%2Fexodus.desync.com%3A6969"],"infoHash":"8a044c0e7e9ab398cd3bb4b5b98f3082c72d465d","infoHashBuffer":{"type":"Buffer","data":[138,4,76,14,126,154,179,152,205,59,180,181,185,143,48,130,199,45,70,93]},"announce":[],"urlList":[]}}